<svg width="30" height="30" viewBox="0 0 30 30" fill="none" xmlns="http://www.w3.org/2000/svg">
<g style="mix-blend-mode:multiply">
<g style="mix-blend-mode:screen">
<path d="M13.3637 16.2096C13.3637 16.0664 13.3414 15.9391 13.2969 15.8277C13.2555 15.7163 13.1807 15.6144 13.0725 15.5221C12.9643 15.4298 12.8115 15.3407 12.6141 15.2548C12.42 15.1657 12.1717 15.0749 11.8694 14.9826C11.5383 14.8808 11.2328 14.7678 10.9527 14.6437C10.6758 14.5163 10.4339 14.3699 10.227 14.2044C10.0201 14.0357 9.85937 13.8432 9.74479 13.6267C9.63021 13.4071 9.57292 13.1541 9.57292 12.8676C9.57292 12.5843 9.6318 12.3265 9.74957 12.0942C9.87052 11.8618 10.0408 11.6613 10.2604 11.4926C10.4832 11.3207 10.7458 11.1887 11.0482 11.0964C11.3505 11.0009 11.6848 10.9531 12.0508 10.9531C12.5664 10.9531 13.0104 11.0486 13.3828 11.2396C13.7584 11.4306 14.0464 11.6868 14.247 12.0082C14.4507 12.3297 14.5525 12.6846 14.5525 13.0729H13.3637C13.3637 12.8438 13.3144 12.6416 13.2157 12.4666C13.1202 12.2883 12.9738 12.1483 12.7765 12.0464C12.5823 11.9446 12.3356 11.8937 12.0365 11.8937C11.7532 11.8937 11.5177 11.9366 11.3299 12.0226C11.1421 12.1085 11.002 12.2247 10.9097 12.3711C10.8174 12.5175 10.7713 12.683 10.7713 12.8676C10.7713 12.9981 10.8015 13.1175 10.862 13.2257C10.9225 13.3307 11.0148 13.4294 11.1389 13.5217C11.263 13.6108 11.419 13.6952 11.6068 13.7747C11.7946 13.8543 12.0158 13.9307 12.2704 14.0039C12.6555 14.1185 12.9913 14.2458 13.2778 14.3859C13.5642 14.5227 13.803 14.6787 13.9939 14.8537C14.1849 15.0288 14.3281 15.2277 14.4236 15.4505C14.5191 15.6701 14.5668 15.92 14.5668 16.2001C14.5668 16.4929 14.508 16.7571 14.3902 16.9926C14.2724 17.225 14.1037 17.4239 13.8841 17.5894C13.6677 17.7517 13.4067 17.8775 13.1011 17.9666C12.7988 18.0525 12.4614 18.0955 12.089 18.0955C11.7548 18.0955 11.4253 18.0509 11.1007 17.9618C10.7792 17.8727 10.4864 17.7374 10.2222 17.556C9.95804 17.3714 9.74797 17.1422 9.59201 16.8685C9.43605 16.5916 9.35807 16.2685 9.35807 15.8993H10.5564C10.5564 16.1253 10.5946 16.3179 10.671 16.477C10.7506 16.6361 10.8604 16.7666 11.0004 16.8685C11.1405 16.9672 11.3028 17.0404 11.4874 17.0881C11.6752 17.1359 11.8757 17.1597 12.089 17.1597C12.3691 17.1597 12.603 17.1199 12.7908 17.0404C12.9818 16.9608 13.125 16.8494 13.2205 16.7062C13.316 16.5629 13.3637 16.3974 13.3637 16.2096ZM18.0091 16.73L19.8377 11.0486H21.1602L18.668 18H17.7752L18.0091 16.73ZM16.319 11.0486L18.1332 16.73L18.3815 18H17.4839L15.0013 11.0486H16.319Z" fill="url(#paint0_diamond_7_43)"/>
</g>
<g style="mix-blend-mode:screen">
<path d="M15.2516 5.33912C15.2541 5.33912 15.2555 5.33921 15.2555 5.33925L15.2516 5.33912ZM15.0799 6.32574C15.1523 6.33597 15.2886 6.35252 15.422 6.31943C15.4884 6.30295 15.6491 6.25122 15.7556 6.0831C15.8764 5.89227 15.8379 5.70026 15.7993 5.60131C15.7632 5.50851 15.7087 5.44126 15.6764 5.40458C15.6393 5.36261 15.5986 5.32494 15.5605 5.29239C15.484 5.22722 15.3875 5.15744 15.2774 5.08397C15.2167 5.04354 15.1846 5.01274 15.1688 4.99477C15.3414 4.21419 15.6666 3.87682 16.0042 3.74129C16.3787 3.59096 16.9223 3.62373 17.6354 3.90644C19.0552 4.46927 20.8058 5.88868 22.3183 7.57801C23.8317 9.26839 25.0247 11.1374 25.4017 12.5366C25.5922 13.2432 25.5456 13.7201 25.367 14.0026C25.206 14.2573 24.8402 14.5 24 14.5C23.8859 14.5 23.7625 14.5273 23.6477 14.5981C23.5342 14.6682 23.4573 14.7636 23.4074 14.8569C23.3159 15.0281 23.3006 15.2184 23.3017 15.3627C23.304 15.6641 23.3852 16.0529 23.5031 16.476C23.7436 17.3385 24.1879 18.5154 24.7227 19.8061C25.1695 20.8842 24.7593 21.9654 23.9624 22.6152C23.168 23.2629 22.0648 23.4236 21.1424 22.7318C20.5004 22.2503 19.701 22.0274 18.9024 22.1073L17.7671 22.2208C17.3028 22.2672 16.8342 22.4144 16.3984 22.574C16.2041 22.6452 16.0089 22.7218 15.8201 22.7958C15.7955 22.8055 15.771 22.8151 15.7467 22.8246C15.5327 22.9084 15.3269 22.9882 15.1254 23.0589C14.2773 23.3564 13.7143 23.4107 13.3 23.1C12.5025 22.5019 11.6105 21.9658 10.7567 21.4526L10.7118 21.4256C9.83426 20.8981 9.0014 20.3952 8.29634 19.8524C7.59123 19.3094 7.05027 18.7531 6.73226 18.1378C6.42222 17.5379 6.30908 16.8536 6.50794 16.0096C6.57559 15.7224 6.62338 15.4499 6.62147 15.233C6.62058 15.1312 6.60936 14.9806 6.53857 14.8383C6.49982 14.7605 6.43609 14.6709 6.33387 14.6016C6.22794 14.5298 6.11035 14.5 6 14.5C5.25848 14.5 4.84264 14.3504 4.62757 14.1788C4.44056 14.0296 4.34594 13.8163 4.37136 13.4803C4.39837 13.1235 4.56359 12.6605 4.88437 12.1203C5.2013 11.5865 5.65134 11.0086 6.20567 10.4282C7.31524 9.26646 8.81053 8.12811 10.4032 7.33715C12.0028 6.54275 13.6494 6.12367 15.0799 6.32574Z" stroke="url(#paint1_linear_7_43)"/>
</g>
</g>
<defs>
<radialGradient id="paint0_diamond_7_43" cx="0" cy="0" r="1" gradientUnits="userSpaceOnUse" gradientTransform="translate(15.5 15) rotate(-30.0686) scale(10.9772 17.838)">
<stop stop-color="#AB17A6"/>
<stop offset="0.338542" stop-color="#653BD7"/>
<stop offset="1" stop-color="#3196D5"/>
</radialGradient>
<linearGradient id="paint1_linear_7_43" x1="-2" y1="-1.5" x2="30" y2="30" gradientUnits="userSpaceOnUse">
<stop stop-color="#AB17A6"/>
<stop offset="0.505208" stop-color="#653BD7"/>
<stop offset="1" stop-color="#3196D5"/>
</linearGradient>
</defs>
</svg>
